# xmcd
#
# Track frame offsets:
#	150
#	19280
#	35442
#	51862
#	67530
#	86600
#	103715
#	126492
#	149317
#	169967
#	190042
#	209492
#	228922
#	248225
#	264267
#	283062
#
# Disc length: 4068 seconds
#
# Revision: 2
# Processed by: cddbd v1.5.2PL0 Copyright (c) Steve Scherf et al.
# Submitted via: EZCDAudioConverter 4.0.4.1
#
DISCID=e40fe210
DTITLE=イルカ - イルカ全曲集
DYEAR=2001
DGENRE=JBlues
TTITLE0=あの頃のぼくは
TTITLE1=風にのせて
TTITLE2=なごり雪
TTITLE3=雨の物語 シングルテイク
TTITLE4=サラダの国から来た娘
TTITLE5=海岸通
TTITLE6=いつか冷たい雨が
TTITLE7=夜明けのグッドバイ
TTITLE8=Follow Me シングルミックス
TTITLE9=もう海には帰れない
TTITLE10=時の子守唄
TTITLE11=君の人生
TTITLE12=花一輪
TTITLE13=星の長距離電話
TTITLE14=光のとびら
TTITLE15=あなたの胸に
EXTD=
EXTT0=
EXTT1=
EXTT2=
EXTT3=
EXTT4=
EXTT5=
EXTT6=
EXTT7=
EXTT8=
EXTT9=
EXTT10=
EXTT11=
EXTT12=
EXTT13=
EXTT14=
EXTT15=
PLAYORDER=
